<svg width="145" height="32" viewBox="0 0 145 32" fill="none" xmlns="http://www.w3.org/2000/svg">
<path fill-rule="evenodd" clip-rule="evenodd" d="M5.29284 8.05285C7.72286 4.78427 11.6141 2.66665 16 2.66665C20.4116 2.66665 24.3227 4.80925 26.7497 8.11062C26.6465 8.21686 26.5524 8.32694 26.4673 8.43689C26.0226 9.0126 25.6882 9.75418 25.4202 10.5072C24.8805 12.0218 24.4688 14.0001 24.0877 15.8527L24.0539 16.0193C23.6736 17.8684 23.3202 19.5882 22.8928 20.8648C22.7008 21.4383 22.5187 21.8438 22.3573 22.1035C22.1888 21.8418 21.9976 21.4313 21.7953 20.8495C21.3382 19.5363 20.9538 17.75 20.5463 15.8426L20.5331 15.7802C20.1415 13.9481 19.726 12.0042 19.2081 10.5163C18.9479 9.76884 18.6286 9.03469 18.211 8.46431C17.8012 7.90454 17.119 7.27279 16.1212 7.27279C15.1297 7.27279 14.4444 7.89768 14.0286 8.45118C13.603 9.01785 13.2711 9.74897 12.9977 10.4968C12.4472 12.0027 11.9971 13.9725 11.5782 15.8276L11.5349 16.0193C11.1201 17.8569 10.7324 19.575 10.2922 20.8541C10.1242 21.3426 9.96563 21.7142 9.8221 21.9797C9.68184 21.7154 9.52725 21.3463 9.36378 20.8619C8.9415 19.6101 8.57158 17.9401 8.17429 16.1465L8.10475 15.8326C7.69309 13.9764 7.24649 12.003 6.68812 10.4924C6.41069 9.74175 6.07137 9.00699 5.63225 8.43764C5.53282 8.30877 5.41981 8.17796 5.29284 8.05285ZM3.82212 10.5626C3.93786 10.7911 4.06028 11.0744 4.18688 11.4169C4.67018 12.7244 5.07966 14.5086 5.50132 16.41L5.58336 16.7804C5.96728 18.5153 6.36664 20.32 6.83702 21.7142C7.0872 22.4557 7.38931 23.182 7.7779 23.7465C8.14534 24.2804 8.80454 24.9699 9.81818 24.9699C10.8289 24.9699 11.4897 24.2837 11.8596 23.7523C12.2515 23.1891 12.5586 22.4636 12.8138 21.7216C13.3031 20.2998 13.7197 18.4528 14.1184 16.6853L14.1794 16.415C14.609 14.5125 15.0225 12.7247 15.5023 11.4124C15.7246 10.8044 15.9327 10.3809 16.1138 10.1181C16.2855 10.3786 16.4817 10.7954 16.6897 11.393C17.1468 12.7063 17.5309 14.4926 17.9385 16.3999L17.9519 16.4624C18.3434 18.2945 18.7588 20.2384 19.2768 21.7261C19.537 22.4739 19.8563 23.208 20.2738 23.7783C20.6838 24.3382 21.3659 24.9699 22.3635 24.9699C23.3664 24.9699 24.046 24.3324 24.4511 23.7675C24.8623 23.1944 25.1716 22.4578 25.4214 21.7113C25.9016 20.2774 26.2836 18.4168 26.6473 16.6469L26.6998 16.3899C27.0916 14.4849 27.4678 12.7056 27.9323 11.402C28.033 11.1184 28.1321 10.8766 28.2267 10.6735C28.9385 12.3049 29.3333 14.1064 29.3333 16C29.3333 23.3637 23.3639 29.3335 16 29.3335C8.6362 29.3335 2.66665 23.3637 2.66665 16C2.66665 14.0634 3.07956 12.2231 3.82212 10.5626ZM16 0C7.16346 0 0 7.16346 0 16C0 24.8365 7.16346 32 16 32C24.8367 32 31.9998 24.8365 31.9998 16C31.9998 7.16346 24.8367 0 16 0ZM16.3029 9.89659C16.3042 9.89564 16.3048 9.89506 16.3048 9.8949C16.3048 9.89457 16.3017 9.89638 16.2955 9.90134C16.2989 9.89935 16.3013 9.89774 16.3029 9.89659ZM15.9362 9.89671C15.9301 9.89291 15.927 9.89031 15.927 9.88998C15.927 9.88965 15.9301 9.89155 15.9362 9.89671ZM22.1607 22.3566C22.1607 22.3566 22.1636 22.3538 22.1694 22.35C22.1636 22.355 22.1607 22.3571 22.1607 22.3566ZM22.5484 22.3459C22.5546 22.3496 22.5579 22.3521 22.5579 22.3525C22.5579 22.3529 22.5546 22.3509 22.5484 22.3459ZM9.54492 22.3806C9.54488 22.3802 9.54872 22.3765 9.5564 22.3711C9.5488 22.3781 9.54492 22.381 9.54492 22.3806ZM10.085 22.3736C10.0926 22.3789 10.0964 22.3827 10.0964 22.3831C10.0964 22.3835 10.0925 22.381 10.085 22.3736Z" fill="#FF8F50"/>
<path d="M40.8346 25.4724L36.9546 12.2004H40.3532L42.6543 21.753L45.3299 12.2004H49.1295L51.8055 21.753L54.1334 12.2004H57.5316L53.6251 25.4724H50.0663L47.2297 15.5452L44.3935 25.4724H40.8346Z" fill="#622F60"/>
<path d="M62.5182 25.7936C61.3766 25.7936 60.4401 25.6148 59.7088 25.2581C58.9776 24.8836 58.4334 24.393 58.0766 23.7865C57.7199 23.1799 57.5415 22.511 57.5415 21.7798C57.5415 20.5489 58.023 19.5499 58.9863 18.7828C59.9496 18.0158 61.3947 17.6322 63.3213 17.6322H66.6927V17.3111C66.6927 16.4014 66.4338 15.7324 65.9168 15.3043C65.3995 14.8761 64.757 14.6621 63.9902 14.6621C63.2945 14.6621 62.6879 14.8316 62.1706 15.1705C61.6532 15.4916 61.332 15.9732 61.2073 16.6154H57.8623C57.9519 15.6522 58.2728 14.8137 58.8256 14.1002C59.3967 13.3866 60.1279 12.8426 61.0198 12.468C61.9121 12.0755 62.9109 11.8793 64.0167 11.8793C65.9078 11.8793 67.3971 12.352 68.4855 13.2975C69.5735 14.2429 70.1177 15.5808 70.1177 17.3111V25.4724H67.201L66.8801 23.3319C66.4875 24.0454 65.9346 24.6337 65.2211 25.0979C64.5253 25.5615 63.6244 25.7936 62.5182 25.7936ZM63.2945 23.1176C64.2755 23.1176 65.0336 22.7963 65.5688 22.1543C66.1216 21.5122 66.4697 20.7182 66.6126 19.7728H63.6958C62.7858 19.7728 62.1351 19.9423 61.7424 20.2813C61.3501 20.6024 61.1536 21.0039 61.1536 21.4854C61.1536 22.0027 61.3501 22.4041 61.7424 22.6894C62.1351 22.9747 62.652 23.1176 63.2945 23.1176Z" fill="#622F60"/>
<path d="M75.5094 25.4724L70.6396 12.2004H74.2249L77.5967 22.2348L80.968 12.2004H84.5537L79.657 25.4724H75.5094Z" fill="#622F60"/>
<path d="M91.439 25.7936C90.1012 25.7936 88.9149 25.5079 87.8802 24.9372C86.8458 24.3662 86.0341 23.5635 85.4453 22.5288C84.8565 21.4944 84.5625 20.2991 84.5625 18.9434C84.5625 17.5698 84.8478 16.3479 85.4184 15.2775C86.0072 14.2072 86.8099 13.3777 87.8269 12.789C88.8612 12.1825 90.0743 11.8793 91.4658 11.8793C92.7681 11.8793 93.9189 12.1647 94.9177 12.7355C95.9165 13.3064 96.6928 14.0913 97.2456 15.0902C97.8163 16.0713 98.102 17.1684 98.102 18.3814C98.102 18.5777 98.0929 18.7828 98.0752 18.9969C98.0752 19.211 98.0661 19.4339 98.0483 19.6658H87.9607C88.0321 20.7004 88.3889 21.5122 89.0309 22.101C89.6908 22.6894 90.4848 22.9838 91.4126 22.9838C92.1079 22.9838 92.688 22.8323 93.1517 22.5288C93.6332 22.2079 93.9899 21.7975 94.222 21.2979H97.7007C97.4509 22.1365 97.0313 22.9037 96.443 23.5994C95.8719 24.277 95.1584 24.8121 94.3021 25.2048C93.4639 25.5971 92.5092 25.7936 91.439 25.7936ZM91.4658 14.6621C90.6276 14.6621 89.8873 14.9029 89.2448 15.3846C88.6028 15.8484 88.1923 16.5619 88.014 17.5252H94.6233C94.5696 16.6511 94.2488 15.9554 93.66 15.4381C93.0712 14.9208 92.3399 14.6621 91.4658 14.6621Z" fill="#622F60"/>
<path d="M99.9121 25.4724V6.20663H103.337V25.4724H99.9121Z" fill="#622F60"/>
<path d="M112.215 25.7936C110.877 25.7936 109.691 25.5079 108.656 24.9372C107.622 24.3662 106.81 23.5635 106.221 22.5288C105.632 21.4944 105.338 20.2991 105.338 18.9434C105.338 17.5698 105.624 16.3479 106.194 15.2775C106.783 14.2072 107.586 13.3777 108.603 12.789C109.638 12.1825 110.85 11.8793 112.242 11.8793C113.544 11.8793 114.695 12.1647 115.694 12.7355C116.692 13.3064 117.469 14.0913 118.022 15.0902C118.592 16.0713 118.878 17.1684 118.878 18.3814C118.878 18.5777 118.869 18.7828 118.851 18.9969C118.851 19.211 118.842 19.4339 118.824 19.6658H108.737C108.808 20.7004 109.165 21.5122 109.807 22.101C110.467 22.6894 111.261 22.9838 112.188 22.9838C112.884 22.9838 113.464 22.8323 113.928 22.5288C114.409 22.2079 114.766 21.7975 114.998 21.2979H118.477C118.227 22.1365 117.807 22.9037 117.219 23.5994C116.648 24.277 115.934 24.8121 115.078 25.2048C114.24 25.5971 113.286 25.7936 112.215 25.7936ZM112.242 14.6621C111.404 14.6621 110.663 14.9029 110.021 15.3846C109.379 15.8484 108.968 16.5619 108.79 17.5252H115.399C115.345 16.6511 115.025 15.9554 114.436 15.4381C113.847 14.9208 113.116 14.6621 112.242 14.6621Z" fill="#622F60"/>
<path d="M126.173 25.7936C124.996 25.7936 123.961 25.6061 123.07 25.2316C122.177 24.839 121.464 24.3038 120.929 23.6259C120.394 22.9483 120.073 22.1634 119.965 21.2715H123.417C123.524 21.7884 123.81 22.2348 124.274 22.6093C124.755 22.966 125.371 23.1444 126.12 23.1444C126.869 23.1444 127.413 22.9929 127.752 22.6894C128.109 22.3863 128.287 22.0382 128.287 21.646C128.287 21.0749 128.038 20.6914 127.538 20.4953C127.038 20.2813 126.343 20.0761 125.451 19.8799C124.88 19.755 124.3 19.6034 123.712 19.425C123.123 19.2466 122.579 19.0236 122.079 18.7561C121.598 18.4706 121.205 18.1139 120.902 17.6857C120.599 17.2398 120.447 16.6957 120.447 16.0535C120.447 14.8761 120.911 13.8861 121.839 13.0834C122.784 12.2806 124.104 11.8793 125.799 11.8793C127.369 11.8793 128.617 12.245 129.545 12.9763C130.49 13.7078 131.052 14.7156 131.231 16H127.993C127.796 15.0189 127.056 14.5283 125.772 14.5283C125.13 14.5283 124.63 14.6532 124.274 14.9029C123.935 15.1527 123.765 15.4648 123.765 15.8394C123.765 16.2319 124.024 16.5441 124.541 16.776C125.058 17.0079 125.745 17.2219 126.602 17.4182C127.529 17.6322 128.376 17.873 129.143 18.1406C129.928 18.3904 130.553 18.7739 131.017 19.2912C131.48 19.7907 131.712 20.5132 131.712 21.4585C131.73 22.2794 131.516 23.0193 131.07 23.6795C130.624 24.3394 129.982 24.8567 129.143 25.2316C128.305 25.6061 127.315 25.7936 126.173 25.7936Z" fill="#622F60"/>
<path d="M139.161 25.7936C137.984 25.7936 136.949 25.6061 136.057 25.2316C135.166 24.839 134.452 24.3038 133.917 23.6259C133.382 22.9483 133.061 22.1634 132.954 21.2715H136.405C136.512 21.7884 136.798 22.2348 137.261 22.6093C137.743 22.966 138.359 23.1444 139.108 23.1444C139.857 23.1444 140.401 22.9929 140.74 22.6894C141.097 22.3863 141.275 22.0382 141.275 21.646C141.275 21.0749 141.025 20.6914 140.526 20.4953C140.027 20.2813 139.331 20.0761 138.439 19.8799C137.868 19.755 137.288 19.6034 136.699 19.425C136.111 19.2466 135.567 19.0236 135.067 18.7561C134.586 18.4706 134.193 18.1139 133.89 17.6857C133.587 17.2398 133.435 16.6957 133.435 16.0535C133.435 14.8761 133.899 13.8861 134.827 13.0834C135.772 12.2806 137.092 11.8793 138.787 11.8793C140.357 11.8793 141.605 12.245 142.533 12.9763C143.478 13.7078 144.04 14.7156 144.218 16H140.981C140.785 15.0189 140.044 14.5283 138.76 14.5283C138.118 14.5283 137.618 14.6532 137.261 14.9029C136.922 15.1527 136.753 15.4648 136.753 15.8394C136.753 16.2319 137.012 16.5441 137.529 16.776C138.046 17.0079 138.733 17.2219 139.589 17.4182C140.517 17.6322 141.364 17.873 142.132 18.1406C142.917 18.3904 143.541 18.7739 144.005 19.2912C144.468 19.7907 144.7 20.5132 144.7 21.4585C144.718 22.2794 144.504 23.0193 144.058 23.6795C143.612 24.3394 142.97 24.8567 142.132 25.2316C141.293 25.6061 140.303 25.7936 139.161 25.7936Z" fill="#622F60"/>
</svg>
