<svg width="15" height="15" viewBox="0 0 15 15" fill="none" xmlns="http://www.w3.org/2000/svg">
<path d="M14.1 12.7C14.3 12.9 14.4 13.1 14.4 13.4C14.4 13.7 14.3 13.9 14.1 14.1C13.9 14.3 13.7 14.4 13.4 14.4C13.1 14.4 12.9 14.3 12.7 14.1L7.2 8.6L1.7 14.1C1.5 14.3 1.3 14.4 1 14.4C0.7 14.4 0.5 14.3 0.3 14.1C0.0999997 13.9 0 13.7 0 13.4C0 13.1 0.0999997 12.9 0.3 12.7L5.8 7.2L0.3 1.7C0.2 1.5 0.0999999 1.3 0.0999999 1C0.0999999 0.7 0.2 0.5 0.4 0.3C0.8 -0.1 1.4 -0.1 1.8 0.3L7.3 5.8L12.8 0.3C13 0.1 13.2 2.90573e-07 13.5 2.90573e-07C13.8 2.90573e-07 14 0.1 14.2 0.3C14.4 0.5 14.5 0.7 14.5 1C14.5 1.3 14.2 1.5 14.1 1.7L8.6 7.2L14.1 12.7Z" fill="#342E34"/>
</svg>
