<svg width="24" height="24" viewBox="0 0 24 24" fill="none" xmlns="http://www.w3.org/2000/svg">
<circle cx="12.5283" cy="8.3042" r="1.056" stroke="#342E34" stroke-width="1.056"/>
<path d="M11.5581 4.1798C12.1144 3.69608 12.9423 3.69608 13.4985 4.1798L20.2837 10.0792C20.6379 10.3872 20.8252 10.8457 20.7876 11.3136L20.2134 18.4552C20.1514 19.2229 19.5099 19.8143 18.7397 19.8146H6.31689C5.54665 19.8144 4.90523 19.2229 4.84326 18.4552L4.26904 11.3136C4.23148 10.8457 4.41871 10.3872 4.77295 10.0792L11.5581 4.1798Z" stroke="#342E34" stroke-width="1.2672"/>
<line x1="7.45196" y1="19.8938" x2="7.45196" y2="21.9262" stroke="#342E34" stroke-width="1.2672" stroke-linecap="round"/>
<line x1="17.2562" y1="19.8938" x2="17.2562" y2="21.9262" stroke="#342E34" stroke-width="1.2672" stroke-linecap="round"/>
<path d="M14.996 19.2619V14.7748C14.996 13.6084 14.0504 12.6628 12.884 12.6628H12.2053C11.0388 12.6628 10.0933 13.6084 10.0933 14.7748V19.2619" stroke="#342E34" stroke-width="1.2672"/>
</svg>
